<svg width="24" height="24" viewBox="0 0 24 24" fill="none" xmlns="http://www.w3.org/2000/svg">
  <path d="M10.29 3.86L1.82 18C1.64556 18.3024 1.55293 18.6453 1.55199 18.9945C1.55104 19.3437 1.64181 19.6871 1.81442 19.9894C1.98704 20.2917 2.23502 20.5417 2.53258 20.7131C2.83014 20.8845 3.16638 20.971 3.505 20.97H20.495C20.8336 20.971 21.1699 20.8845 21.4674 20.7131C21.765 20.5417 22.013 20.2917 22.1856 19.9894C22.3582 19.6871 22.449 19.3437 22.448 18.9945C22.4471 18.6453 22.3544 18.3024 22.18 18L13.71 3.86C13.5317 3.56611 13.2807 3.32312 12.9835 3.15649C12.6863 2.98986 12.3537 2.90576 12.019 2.91294C11.6843 2.92012 11.3593 3.01831 11.0777 3.19729C10.7961 3.37626 10.5681 3.62947 10.417 3.92L10.29 3.86Z" stroke="#FFD600" stroke-width="2" stroke-linecap="round" stroke-linejoin="round"/>
  <path d="M12 9V13" stroke="#FFD600" stroke-width="2" stroke-linecap="round" stroke-linejoin="round"/>
  <path d="M12 17H12.01" stroke="#FFD600" stroke-width="2" stroke-linecap="round" stroke-linejoin="round"/>
</svg>
